<svg xmlns="http://www.w3.org/2000/svg" viewBox="0 0 800 450" role="img" aria-label="Vietnamese festivals">
  <defs>
    <linearGradient id="bg" x1="0" y1="0" x2="0" y2="1"><stop offset="0%" stop-color="#1A1030"/><stop offset="100%" stop-color="#2D1B4E"/></linearGradient>
  </defs>
  <rect width="800" height="450" fill="url(#bg)"/>
  <ellipse cx="400" cy="350" rx="300" ry="80" fill="#0D5C4F" opacity="0.5"/>
  <rect x="350" y="180" width="100" height="140" fill="#DA251D"/>
  <polygon fill="#FFCD00" points="400,120 430,180 370,180"/>
  <path fill="#FFCD00" d="M380 200 L400 160 L420 200 Z"/>
  <circle cx="200" cy="120" r="8" fill="#FFCD00"/>
  <circle cx="600" cy="100" r="6" fill="#FF6B6B"/>
  <circle cx="150" cy="200" r="5" fill="#4ECDC4"/>
  <circle cx="650" cy="180" r="7" fill="#FFE66D"/>
  <rect x="32" y="32" width="56" height="38" rx="3" fill="#DA251D"/>
  <polygon fill="#FFCD00" points="60,42 64,52 76,52 66,59 70,69 60,63 50,69 54,59 44,52 56,52"/>
</svg>
