<svg xmlns="http://www.w3.org/2000/svg" viewBox="0 0 800 450" role="img" aria-label="Vietnam islands">
  <defs>
    <linearGradient id="sky" x1="0" y1="0" x2="0" y2="1"><stop offset="0%" stop-color="#5BA3D9"/><stop offset="100%" stop-color="#A8D4F0"/></linearGradient>
    <linearGradient id="sea" x1="0" y1="0" x2="0" y2="1"><stop offset="0%" stop-color="#2E8B8B"/><stop offset="100%" stop-color="#0D5C4F"/></linearGradient>
  </defs>
  <rect width="800" height="450" fill="url(#sky)"/>
  <rect y="220" width="800" height="230" fill="url(#sea)"/>
  <ellipse cx="200" cy="280" rx="140" ry="50" fill="#2D6A5A"/>
  <ellipse cx="200" cy="265" rx="100" ry="35" fill="#3D8B7A"/>
  <ellipse cx="520" cy="300" rx="180" ry="60" fill="#1A4038"/>
  <ellipse cx="520" cy="280" rx="130" ry="40" fill="#2D6A5A"/>
  <ellipse cx="700" cy="320" rx="90" ry="35" fill="#3D8B7A"/>
  <path fill="#F5E6C8" d="M180 250 Q200 230 220 250 L220 280 Q200 270 180 280Z"/>
  <circle cx="650" cy="100" r="35" fill="#F4C430" opacity="0.9"/>
  <rect x="32" y="32" width="56" height="38" rx="3" fill="#DA251D"/>
  <polygon fill="#FFCD00" points="60,42 64,52 76,52 66,59 70,69 60,63 50,69 54,59 44,52 56,52"/>
</svg>
