<svg xmlns="http://www.w3.org/2000/svg" viewBox="0 0 800 450" role="img" aria-label="Family travel Vietnam">
  <defs>
    <linearGradient id="bg" x1="0" y1="0" x2="0" y2="1"><stop offset="0%" stop-color="#87CEEB"/><stop offset="100%" stop-color="#B0E0E6"/></linearGradient>
  </defs>
  <rect width="800" height="450" fill="url(#bg)"/>
  <circle cx="680" cy="90" r="45" fill="#F4C430"/>
  <path fill="#2D6A5A" d="M0 320 Q200 260 400 300 T800 280 L800 450 L0 450Z"/>
  <circle cx="320" cy="240" r="35" fill="#F5E6C8"/>
  <circle cx="400" cy="220" r="40" fill="#F5E6C8"/>
  <circle cx="480" cy="240" r="35" fill="#F5E6C8"/>
  <rect x="300" y="275" width="40" height="60" rx="8" fill="#0D5C4F"/>
  <rect x="380" y="260" width="40" height="75" rx="8" fill="#DA251D"/>
  <rect x="460" y="275" width="40" height="60" rx="8" fill="#0D5C4F"/>
  <rect x="32" y="32" width="56" height="38" rx="3" fill="#DA251D"/>
  <polygon fill="#FFCD00" points="60,42 64,52 76,52 66,59 70,69 60,63 50,69 54,59 44,52 56,52"/>
</svg>
