<svg xmlns="http://www.w3.org/2000/svg" viewBox="0 0 800 450" role="img" aria-label="Vietnam wellness">
  <defs>
    <linearGradient id="bg" x1="0" y1="0" x2="0" y2="1"><stop offset="0%" stop-color="#E8F4F0"/><stop offset="100%" stop-color="#B8D4C8"/></linearGradient>
  </defs>
  <rect width="800" height="450" fill="url(#bg)"/>
  <ellipse cx="400" cy="320" rx="120" ry="30" fill="#7EB8A8" opacity="0.6"/>
  <path fill="#4A9B7F" d="M400 180 Q420 220 400 280 Q380 220 400 180Z"/>
  <path fill="#6BB89A" d="M370 250 Q400 230 430 250 Q400 270 370 250Z"/>
  <circle cx="400" cy="200" r="25" fill="#FFCD00" opacity="0.8"/>
  <path stroke="#0D5C4F" stroke-width="2" fill="none" d="M350 300 Q400 280 450 300"/>
  <rect x="32" y="32" width="56" height="38" rx="3" fill="#DA251D"/>
  <polygon fill="#FFCD00" points="60,42 64,52 76,52 66,59 70,69 60,63 50,69 54,59 44,52 56,52"/>
</svg>
